<?xml version="1.0" encoding="UTF-8"?><svg id="Layer_2" xmlns="http://www.w3.org/2000/svg" viewBox="0 0 500 500"><path d="M345.98,149.13c-.6,10.22-33.07,36.98-71.26,83.59,14.13,26.46,33.98,55.02,63.44,82.38,0,0,0,3.01-.9,6.92-.3.9,2.41,3.91,1.8,4.81-.3.3-4.51-1.8-4.81-1.5-.6.3,1.5,2.71.9,3.01-.9.9-3.31,1.2-4.21,1.8-10.22,6.92-25.56,9.62-35.78,3.31-17.14-12.33-35.18-34.58-51.72-59.53-14.13,20.75-28.26,43.9-40.89,70.06,0,0-.9-1.2-.9-2.41-.9.9-4.81,5.11-4.81,5.11,0,0,0-1.8-1.2-2.1-1.8,0-4.21-2.41-4.21-2.41,0,0-4.51,1.2-6.62-2.1-1.8-3.01-2.41-9.32-2.1-14.13,7.22-27.36,22.85-56.53,40.89-83.89-27.36-47.21-47.21-93.21-47.21-95.61,0,0,17.44-19.24,36.38-19.24s27.36,28.86,44.5,68.85c32.17-40.29,61.94-69.46,64.04-70.36,0,0,25.86,4.81,24.66,23.45Z"/></svg>