<?xml version="1.0" encoding="UTF-8"?><svg id="Layer_3" xmlns="http://www.w3.org/2000/svg" viewBox="0 0 500 500"><path d="M323.81,136.74c1.73.6,3.78,1.45,5.74,2.59,6.17,3.57,6.53,7.03,6.47,8.71-1.65,4.14-13.17,16.36-23.36,27.16-12.69,13.46-28.49,30.2-45.68,51.18l-4.23,5.16,3.14,5.89c16.33,30.58,36.37,57.11,61.16,80.94-1.08,1.1-1.91,2.45-2.4,3.93-4.66,2.95-10.5,4.7-15.78,4.7-3.21,0-6.04-.66-8.2-1.91-14.29-10.39-31.19-29.99-48.9-56.71l-8.22-12.41-8.38,12.3c-14.72,21.61-27.08,42.38-37.63,63.24l-1.25,1.25-1.71-1.8-1.8.48c-.12-1.18-.18-2.54-.14-3.98,6.22-22.92,19.44-49.8,39.3-79.93l3.41-5.17-3.1-5.35c-21.75-37.52-38.72-74.46-44.27-87.9,5.93-5.17,15.76-11.94,24.79-11.94,2.8,0,6.34,1.06,11.4,8.91,5.02,7.79,9.93,19.86,15.6,33.83,2.59,6.38,5.27,12.97,8.3,20.05l6.58,15.36,10.42-13.06c26.52-33.21,50.17-57.42,58.71-65.54M321.33,125.67c-2.11.9-31.87,30.07-64.04,70.36-17.14-39.99-24.66-68.85-44.5-68.85s-36.38,19.24-36.38,19.24c0,2.41,19.84,48.41,47.21,95.61-18.04,27.36-33.68,56.53-40.89,83.89-.3,4.81.3,11.12,2.1,14.13,1.22,1.91,3.24,2.32,4.73,2.32,1.08,0,1.88-.21,1.88-.21,0,0,2.41,2.41,4.21,2.41,1.2.3,1.2,2.1,1.2,2.1,0,0,3.91-4.21,4.81-5.11,0,1.2.9,2.41.9,2.41,12.63-26.16,26.76-49.31,40.89-70.06,16.54,24.96,34.58,47.21,51.72,59.53,3.99,2.47,8.77,3.56,13.71,3.56,7.71,0,15.84-2.65,22.07-6.86.9-.6,3.31-.9,4.21-1.8.6-.3-1.5-2.71-.9-3.01.02-.02.06-.03.11-.03.68,0,3.91,1.56,4.59,1.56.05,0,.09,0,.11-.03.6-.9-2.1-3.91-1.8-4.81.9-3.91.9-6.92.9-6.92-29.47-27.36-49.31-55.92-63.44-82.38,38.19-46.61,70.66-73.36,71.26-83.59,1.2-18.64-24.66-23.45-24.66-23.45h0Z"/></svg>